<svg xmlns="http://www.w3.org/2000/svg" xmlns:xlink="http://www.w3.org/1999/xlink" width="500" zoomAndPan="magnify" viewBox="0 0 375 374.999991" height="500" preserveAspectRatio="xMidYMid meet" version="1.0"><defs><g/><clipPath id="b222be769f"><path d="M 0 157 L 351 157 L 351 252.75 L 0 252.75 Z M 0 157 " clip-rule="nonzero"/></clipPath></defs><path fill="#380116" d="M 230.285156 83.332031 C 230.214844 83.9375 230.191406 84.171875 230.214844 83.753906 C 230.214844 83.683594 230.238281 83.542969 230.285156 83.332031 Z M 230.285156 83.332031 " fill-opacity="1" fill-rule="nonzero"/><path fill="#380116" d="M 241.804688 38.238281 C 242.898438 36.398438 248.9375 33.109375 267.054688 36.164062 C 284.847656 39.148438 344.046875 59.550781 347.21875 60.484375 C 343.90625 59.597656 269.785156 39.941406 265.285156 39.078125 C 260.691406 38.191406 250.851562 36.980469 246.816406 38.496094 C 240.847656 40.757812 231.171875 78.667969 230.261719 83.332031 C 230.472656 81.304688 231.03125 75.03125 231.148438 73.867188 C 231.289062 72.328125 240.707031 40.105469 241.804688 38.238281 Z M 241.804688 38.238281 " fill-opacity="1" fill-rule="nonzero"/><path fill="#380116" d="M 268.851562 89.070312 C 268.664062 77.621094 268.476562 66.21875 268.292969 54.792969 C 268.246094 51.621094 268.082031 48.195312 265.960938 45.816406 C 263.652344 43.25 259.804688 42.878906 256.328125 42.902344 C 254.183594 42.925781 252.039062 43.042969 249.964844 43.554688 C 248.121094 43.996094 245.511719 44.765625 244.882812 46.726562 C 243.320312 51.507812 241.828125 56.308594 240.429688 61.160156 C 238.257812 68.597656 236.300781 76.082031 234.527344 83.636719 L 234.503906 83.636719 L 230.378906 100.332031 L 230.402344 100.308594 C 229.214844 104.386719 228.28125 111.125 228.28125 111.125 C 228.28125 111.125 227.789062 112.105469 227.089844 112.546875 C 226.367188 112.992188 225.574219 114.761719 226.042969 115.835938 C 226.507812 116.929688 236.042969 115.765625 238.238281 114.832031 C 240.429688 113.902344 237.980469 111.664062 237.980469 111.664062 C 237.980469 111.664062 258.683594 110.894531 261.996094 109.679688 C 265.238281 108.492188 263.023438 105.34375 263.089844 102.359375 C 265.398438 101.683594 267.195312 99.5625 268.035156 97.253906 C 268.921875 94.640625 268.921875 91.820312 268.851562 89.070312 Z M 266.9375 97.765625 C 266.332031 99.722656 264.933594 101.542969 263.046875 102.265625 C 263.070312 102.242188 263.070312 102.21875 263.046875 102.195312 C 263.183594 99.164062 262.320312 100.378906 261.414062 98.183594 C 260.480469 95.992188 261.132812 85.734375 260.039062 81.515625 C 258.941406 77.269531 254.347656 76.476562 245.929688 77.550781 C 237.535156 78.621094 239.660156 99.980469 239.660156 99.980469 C 237.675781 100.027344 236.394531 99.933594 235.53125 99.746094 C 234.179688 94.339844 235.882812 83.914062 235.882812 83.914062 C 239.097656 73.679688 242.363281 63.46875 245.605469 53.230469 C 246.328125 50.875 247.191406 48.359375 249.195312 46.914062 C 251.339844 45.398438 254.183594 45.492188 256.796875 45.675781 C 259.382812 45.863281 262.320312 46.191406 263.90625 48.21875 C 265.097656 49.710938 265.238281 51.761719 265.351562 53.628906 C 265.609375 58.289062 265.867188 62.90625 266.121094 67.546875 C 266.542969 75.3125 266.984375 83.054688 267.40625 90.816406 C 267.523438 93.148438 267.636719 95.550781 266.9375 97.765625 Z M 266.9375 97.765625 " fill-opacity="1" fill-rule="nonzero"/><path fill="#380116" d="M 368.925781 140.667969 C 351.601562 142.324219 309.816406 140.109375 280.347656 138.171875 C 281.488281 169.136719 278.246094 172.121094 278.246094 172.121094 L 278.269531 172.355469 C 278.292969 172.402344 278.292969 172.449219 278.292969 172.519531 C 278.316406 172.820312 278.363281 173.242188 278.410156 173.824219 C 278.480469 174.640625 278.550781 175.734375 278.597656 177.042969 C 278.621094 177.226562 278.621094 177.414062 278.621094 177.601562 C 278.621094 177.625 278.621094 177.625 278.621094 177.625 C 278.855469 182.496094 278.96875 189.863281 278.152344 196.929688 C 278.152344 197.09375 278.128906 197.234375 278.109375 197.375 C 277.082031 204.972656 275.332031 209.335938 274.5625 210.988281 C 274.445312 211.246094 274.308594 211.503906 274.167969 211.757812 C 275.683594 205.8125 276.359375 199.726562 276.570312 194.15625 L 245.089844 195.789062 C 245.089844 195.789062 243.855469 169.253906 232.128906 164.378906 C 220.398438 159.507812 215.992188 170.234375 215.992188 170.234375 C 215.992188 170.234375 217.789062 157.617188 230.214844 159.625 C 242.667969 161.628906 248.378906 178.324219 248.378906 178.324219 L 276.054688 178.160156 C 275.683594 174.429688 275.261719 172.144531 275.261719 172.144531 C 276.847656 165.664062 277.292969 152.839844 277.105469 137.941406 C 260.433594 136.820312 248.449219 135.839844 248.449219 135.839844 C 256.679688 135.304688 266.542969 135.140625 277.058594 135.210938 C 276.5 100.75 272.882812 56.660156 272.558594 52.601562 C 277.316406 91.285156 279.460938 117.492188 280.230469 135.234375 C 323.203125 135.746094 374.847656 140.109375 368.925781 140.667969 Z M 368.925781 140.667969 " fill-opacity="1" fill-rule="nonzero"/><path fill="#380116" d="M 333.226562 29.449219 C 323.902344 25.367188 314.339844 21.824219 304.875 18.1875 C 294.265625 13.941406 283.5625 9.816406 272.839844 5.898438 C 268.476562 4.289062 264.1875 2.566406 259.640625 1.773438 C 254.976562 0.957031 250.222656 0.628906 245.511719 0.558594 C 215.644531 0 143.222656 1.074219 126.246094 10.398438 C 118.4375 12.730469 111.675781 20.191406 106.171875 25.742188 C 104.867188 27.070312 103.539062 28.421875 102.253906 29.773438 C 108.339844 26.066406 114.285156 22.453125 115.3125 21.847656 C 115.335938 21.847656 115.335938 21.824219 115.335938 21.824219 C 115.382812 21.800781 115.429688 21.753906 115.476562 21.753906 C 116.6875 20.867188 117.992188 20.027344 119.347656 19.234375 C 123.472656 16.8125 128.136719 14.78125 133.289062 13.59375 C 135.503906 13.082031 138.371094 12.566406 141.707031 12.078125 C 172.996094 7.390625 248.027344 3.566406 262.671875 7.460938 C 264.257812 7.882812 265.65625 8.160156 266.867188 8.324219 C 266.867188 8.324219 333.71875 26.652344 348.265625 41.058594 C 348.847656 41.597656 346.796875 35.394531 333.226562 29.449219 Z M 333.226562 29.449219 " fill-opacity="1" fill-rule="nonzero"/><path fill="#380116" d="M 235.113281 38.050781 L 234.109375 36.234375 C 234.109375 36.234375 175.65625 32.78125 127.695312 36.746094 C 124.382812 37.050781 121.117188 37.351562 117.925781 37.679688 L 117.902344 37.703125 C 116.851562 37.820312 115.777344 37.9375 114.730469 38.050781 C 114.125 38.121094 113.539062 38.191406 112.933594 38.285156 C 107.453125 38.960938 102.207031 39.777344 97.382812 40.734375 L 90.550781 43.019531 C 74.554688 62.160156 60.753906 83.214844 46.460938 103.640625 L 46.367188 103.710938 C 39.441406 107.394531 21.019531 118.726562 15.703125 135.421875 C 13.257812 143.117188 11.113281 149.691406 9.386719 155.285156 C 14.445312 156.800781 21.300781 158.832031 23.027344 159.085938 C 25.871094 159.484375 25.125 162.679688 25.125 162.679688 C 25.800781 174.59375 35.710938 178.765625 35.710938 178.765625 C 49.492188 183.171875 122.308594 179.699219 127.367188 176.433594 C 132.425781 173.148438 139.726562 159.019531 139.726562 158.226562 C 139.726562 157.410156 148.257812 159.648438 152.710938 160.042969 C 157.1875 160.441406 174.234375 159.4375 183.535156 157.410156 C 192.628906 155.402344 192.746094 153.65625 192.746094 153.5625 C 192.746094 153.5625 204.777344 141.996094 204.125 130.96875 C 204.125 130.96875 204.566406 129.03125 199.179688 129.101562 C 193.773438 129.171875 146.53125 135.769531 146.53125 135.769531 C 146.53125 135.769531 140.261719 130.617188 130.980469 130.457031 C 121.722656 130.269531 39.765625 131.691406 35.035156 132.320312 C 30.300781 132.949219 26.335938 136.820312 26.335938 136.820312 L 20.160156 135.070312 C 20.160156 135.070312 35.222656 107.160156 55.320312 103.476562 C 75.394531 99.816406 199.765625 96.855469 213.359375 101.402344 C 213.359375 101.402344 211.46875 113.832031 210.511719 115.976562 C 209.582031 118.074219 190.949219 127.121094 189.832031 127.679688 C 190.972656 127.332031 209.347656 121.476562 211.726562 119.078125 C 214.152344 116.628906 214.152344 116.628906 214.152344 116.628906 C 214.152344 116.628906 235.625 40.664062 235.34375 39.359375 C 235.113281 38.050781 235.113281 38.050781 235.113281 38.050781 Z M 144.574219 149.085938 C 144.574219 149.085938 153.039062 139.570312 156.511719 138.148438 C 159.988281 136.726562 159.988281 136.726562 159.988281 136.726562 C 159.988281 136.726562 202.726562 128.285156 202.492188 132.273438 C 202.492188 132.273438 196.6875 151.253906 185.496094 152.746094 C 174.28125 154.238281 155.742188 156.125 153.039062 155.425781 C 150.355469 154.703125 150.355469 154.703125 150.355469 154.703125 C 150.355469 154.703125 143.503906 153.957031 143.921875 152.234375 C 144.292969 150.507812 144.574219 149.085938 144.574219 149.085938 Z M 121.722656 172.003906 C 117.96875 174.382812 96.261719 176.949219 68.867188 176.363281 C 41.421875 175.78125 36.035156 174.523438 33.589844 172.097656 L 32.445312 170.957031 C 32.050781 170.582031 31.722656 170.140625 31.445312 169.695312 C 48 171.351562 82.902344 171.027344 106.707031 170.816406 C 113.027344 170.746094 118.695312 170.699219 123.125 170.675781 C 122.585938 171.28125 122.121094 171.75 121.722656 172.003906 Z M 125.386719 167.691406 C 120.769531 167.691406 114.308594 167.738281 106.664062 167.808594 C 82.203125 168.042969 45.921875 168.367188 30.324219 166.550781 C 29.765625 164.21875 28.972656 160.8125 28.296875 157.410156 C 33.378906 157.546875 48.324219 157.851562 65.8125 158.109375 C 67.492188 162.679688 71.128906 165.894531 75.464844 166.011719 C 79.894531 166.128906 83.789062 162.957031 85.628906 158.316406 C 102.90625 158.457031 120.09375 158.433594 131.144531 157.96875 C 129.210938 161.558594 127.179688 165.054688 125.386719 167.691406 Z M 132.707031 154.890625 C 122.027344 155.402344 104.355469 155.449219 86.492188 155.308594 C 86.632812 154.496094 86.726562 153.632812 86.75 152.746094 C 86.820312 149.785156 86.144531 147.054688 84.882812 144.792969 C 105.378906 144.515625 125.945312 144.117188 137.253906 143.839844 C 136.578125 146.472656 134.828125 150.578125 132.707031 154.890625 Z M 33.820312 136.378906 L 35.40625 135.632812 C 36.292969 135.210938 37.226562 135 38.207031 134.976562 L 130.492188 134.09375 C 131.914062 134.070312 133.289062 134.488281 134.410156 135.328125 C 135.761719 136.285156 137.441406 137.871094 137.578125 140.808594 C 126.039062 141.085938 104.050781 141.484375 82.578125 141.785156 C 80.78125 140.0625 78.566406 138.988281 76.140625 138.941406 C 73.460938 138.871094 70.941406 140.015625 69.007812 141.949219 C 50.5625 142.136719 34.359375 142.183594 28.132812 141.925781 C 29.554688 139.199219 31.816406 137.332031 33.820312 136.378906 Z M 27.992188 144.933594 C 34.195312 145.214844 49.328125 145.167969 66.769531 145.003906 C 65.648438 147.054688 64.949219 149.503906 64.878906 152.1875 C 64.855469 153.164062 64.902344 154.121094 65.066406 155.078125 C 47.460938 154.820312 32.585938 154.496094 27.96875 154.378906 Z M 25.125 140.0625 C 25.125 140.0625 23.726562 146.101562 24.308594 149.691406 C 24.84375 153.28125 24.84375 153.28125 24.84375 153.28125 C 24.84375 153.28125 23.28125 154.050781 22.046875 154.402344 C 20.835938 154.75 13.488281 152.980469 13.488281 152.980469 C 13.488281 152.980469 17.757812 137.660156 18.597656 137.824219 C 19.414062 138.007812 19.414062 138.007812 19.414062 138.007812 C 19.414062 138.007812 25.429688 138.59375 25.125 140.0625 Z M 25.125 140.0625 " fill-opacity="1" fill-rule="nonzero"/><path fill="#380116" d="M 358.945312 123.625 L 288.667969 113.921875 L 354.09375 118.050781 C 357.289062 117.234375 356.753906 115.113281 356.753906 115.113281 C 357.265625 112.246094 352.300781 72.539062 348.21875 68.738281 C 344.277344 65.074219 279.085938 45.886719 274.890625 43.953125 C 279.25 45.769531 348.546875 63.210938 352.535156 67.429688 C 356.660156 71.8125 362.09375 117.046875 361.601562 120.3125 C 361.578125 120.3125 362.164062 122.714844 358.945312 123.625 Z M 358.945312 123.625 " fill-opacity="1" fill-rule="nonzero"/><path fill="#380116" d="M 161.78125 101.355469 C 163.179688 101.613281 208.925781 100.75 204.589844 103.105469 C 204.21875 103.316406 202.632812 104.457031 200.488281 105.507812 C 198.34375 106.554688 195.636719 107.558594 192.980469 107.441406 C 187.6875 107.253906 146.183594 107.652344 146.8125 106.347656 C 147.488281 105.039062 160.382812 101.101562 161.78125 101.355469 Z M 161.78125 101.355469 " fill-opacity="1" fill-rule="nonzero"/><path fill="#380116" d="M 78.519531 105.648438 C 77.261719 106.671875 75.628906 107.652344 73.878906 107.792969 C 70.40625 108.046875 43.476562 111.523438 43.730469 110.402344 C 43.988281 109.308594 51.867188 105.132812 52.824219 105.226562 C 53.78125 105.320312 83.390625 101.144531 80.875 103.386719 C 80.664062 103.570312 79.777344 104.621094 78.519531 105.648438 Z M 78.519531 105.648438 " fill-opacity="1" fill-rule="nonzero"/><path fill="#380116" d="M 278.621094 177.601562 L 278.269531 172.519531 C 278.292969 172.820312 278.339844 173.242188 278.386719 173.824219 C 278.457031 174.757812 278.550781 176.0625 278.621094 177.601562 Z M 278.621094 177.601562 " fill-opacity="1" fill-rule="nonzero"/><path fill="#380116" d="M 59.097656 184.757812 C 49.1875 184.851562 41.304688 184.734375 38.414062 184.269531 C 43.730469 184.386719 51.027344 184.550781 59.097656 184.757812 Z M 59.097656 184.757812 " fill-opacity="1" fill-rule="nonzero"/><g clip-path="url(#b222be769f)"><path fill="#380116" d="M 240.988281 220.105469 C 241.945312 215.28125 242.503906 209.917969 242.503906 204.25 C 242.527344 183.21875 235.113281 166.152344 225.972656 166.152344 C 222.636719 166.152344 219.488281 168.460938 216.878906 172.425781 C 212.378906 172.632812 206.667969 172.585938 204.800781 171.210938 C 201.582031 168.832031 201.582031 168.832031 201.582031 168.832031 L 197.921875 162.46875 L 195.125 157.640625 C 194.703125 157.851562 194.121094 158.109375 193.445312 158.410156 C 188.851562 160.277344 179.035156 163.355469 173.160156 163.726562 C 166.421875 164.125 149.496094 164.332031 145.648438 165.148438 C 141.800781 165.964844 134.5 176.109375 132.078125 178.835938 C 129.652344 181.566406 125.175781 182.941406 125.175781 182.941406 C 125.175781 182.941406 125.082031 182.941406 124.871094 182.964844 C 125.457031 182.988281 125.992188 182.988281 126.480469 182.988281 C 142.871094 183.382812 152.316406 198.515625 150.195312 198.65625 C 85.28125 202.898438 96.355469 198.820312 96.355469 198.820312 C 102.417969 199.074219 122.984375 195.113281 122.984375 195.113281 C 122.984375 195.113281 122.984375 195.113281 123.960938 194.785156 C 124.941406 194.457031 122.65625 191.125 122.65625 191.125 C 122.65625 191.125 122.5625 189.863281 117.339844 187.789062 C 114.214844 186.53125 83.507812 185.480469 59.351562 184.828125 L 59.144531 184.828125 C 51.074219 184.617188 43.753906 184.457031 38.460938 184.339844 C 27.96875 182.613281 22 170.023438 20.789062 164.964844 C 19.878906 161.164062 12.371094 158.855469 8.664062 157.921875 C 6.402344 165.453125 4.980469 171.09375 4.699219 175.269531 C 4.1875 182.871094 6.238281 194.015625 6.820312 201.148438 C 7.425781 208.285156 5.933594 215.582031 20.648438 222.113281 C 20.648438 222.113281 22.023438 229.621094 25.589844 236.476562 C 16.871094 238.898438 1.457031 243.28125 0.664062 244.074219 C 0.152344 244.589844 15.496094 244.636719 31.652344 244.496094 C 42.796875 244.425781 54.316406 244.261719 61.335938 244.167969 C 66.089844 244.097656 70.429688 241.464844 72.667969 237.265625 C 73.4375 235.84375 74.113281 234.304688 74.484375 232.835938 C 38.929688 232.230469 27.527344 222.835938 26.851562 222.25 C 27.128906 222.414062 29.4375 223.71875 37.949219 226.75 C 46.550781 229.828125 72.246094 230.25 75.253906 230.296875 C 75.277344 230.273438 75.324219 230.273438 75.347656 230.273438 C 83.671875 229.96875 179.828125 226.425781 184.375 229.082031 C 189.15625 231.835938 186.800781 235.519531 191.394531 245.289062 C 191.535156 245.542969 191.648438 245.800781 191.8125 246.058594 L 177.195312 252.65625 L 222.871094 252.65625 C 227.789062 251.515625 232.058594 245.476562 234.785156 236.636719 C 236.835938 233.675781 238.609375 229.714844 239.9375 225.050781 L 346.449219 211.78125 C 347.308594 210.429688 348.59375 208.867188 350.085938 206.816406 C 338.285156 207.796875 248.03125 219.359375 240.988281 220.105469 Z M 11.742188 202.199219 C 9.734375 199.355469 8.617188 182.566406 9.875 179.464844 C 11.136719 176.339844 20.089844 178.113281 21.953125 178.464844 L 18.292969 179.140625 C 18.292969 179.140625 18.292969 179.140625 13.582031 180.164062 C 8.875 181.167969 11.742188 202.199219 11.742188 202.199219 Z M 39.019531 215.699219 C 36.480469 215.699219 33.914062 215.699219 31.375 215.441406 C 19.039062 214.183594 16.519531 211.128906 15.332031 208.960938 C 15.332031 208.960938 20.4375 212.949219 31.046875 213.320312 C 34.964844 213.484375 37.460938 213.554688 39.019531 213.625 Z M 43.730469 220.574219 L 42.613281 207.097656 L 100.925781 206.863281 L 102.046875 220.316406 Z M 194.9375 204.226562 C 193.933594 206.933594 191.953125 208.84375 189.503906 210.289062 C 186.21875 212.25 183.558594 213.25 179.78125 213.296875 C 178.546875 213.320312 177.3125 213.34375 176.074219 213.367188 L 165.746094 213.601562 C 155.976562 213.835938 146.207031 214.042969 136.4375 214.277344 C 126.109375 214.488281 115.800781 214.71875 105.472656 214.90625 L 105.449219 210.941406 C 141.800781 209.382812 180.226562 207.703125 180.597656 207.65625 C 181.34375 207.585938 182.535156 206.980469 182.558594 206.980469 C 184.28125 206.117188 189.714844 202.175781 189.503906 199.890625 C 189.367188 197.933594 189.34375 197.863281 189.34375 197.863281 C 188.945312 192.964844 186.425781 187.742188 183.234375 184.082031 C 180.109375 180.492188 176.167969 179.257812 171.644531 178.601562 C 160.917969 177.089844 149.75 176.0625 138.980469 177.507812 C 138.164062 177.625 137.347656 177.742188 136.507812 177.902344 C 139.046875 177.34375 167.121094 171.585938 180.015625 176.480469 C 193.5625 181.679688 196.382812 200.3125 194.9375 204.226562 Z M 226.742188 235.730469 C 227.929688 235.730469 229.074219 234.984375 230.121094 233.675781 C 228.164062 240.113281 225.527344 244.519531 222.636719 245.683594 C 222.03125 245.917969 221.449219 246.011719 220.820312 245.988281 C 216.414062 245.589844 212.960938 237.335938 211.679688 225.796875 C 211.515625 224.28125 211.375 222.742188 211.304688 221.132812 C 211.144531 218.03125 211.121094 214.765625 211.257812 211.410156 C 211.820312 198.351562 214.757812 187.277344 218.558594 182.054688 C 220.167969 179.839844 221.914062 178.671875 223.734375 178.835938 C 228.210938 179.257812 231.707031 187.789062 232.921875 199.679688 C 231.453125 194.832031 229.214844 191.753906 226.742188 191.753906 C 222.289062 191.753906 218.699219 201.59375 218.699219 213.742188 C 218.675781 225.867188 222.289062 235.730469 226.742188 235.730469 Z M 238.726562 204.949219 C 238.421875 211.410156 237.582031 217.402344 236.300781 222.414062 C 236.488281 220.457031 236.605469 218.449219 236.699219 216.398438 C 237.605469 195.625 234.0625 177.554688 228.304688 170.347656 C 228.605469 170.324219 228.863281 170.304688 229.167969 170.324219 C 235.273438 170.886719 239.542969 186.390625 238.726562 204.949219 Z M 238.726562 204.949219 " fill-opacity="1" fill-rule="nonzero"/></g><g fill="#000000" fill-opacity="0.4"><g transform="translate(134.658335, 273.551612)"><g><path d="M 9.9375 -15.28125 L 9.9375 -12.21875 L 4.59375 -12.21875 L 4.59375 -9.1875 L 9.53125 -9.1875 L 9.53125 -6.125 L 4.59375 -6.125 L 4.59375 0 L 1.109375 0 L 1.109375 -15.28125 Z M 9.9375 -15.28125 "/></g></g></g><g fill="#000000" fill-opacity="0.4"><g transform="translate(145.156709, 273.551612)"><g><path d="M 4.59375 -15.28125 L 4.59375 -3.0625 L 9.84375 -3.0625 L 9.84375 0 L 1.109375 0 L 1.109375 -15.28125 Z M 4.59375 -15.28125 "/></g></g></g><g fill="#000000" fill-opacity="0.4"><g transform="translate(155.61805, 273.551612)"><g><path d="M 9.84375 -15.28125 L 9.84375 -12.21875 L 4.59375 -12.21875 L 4.59375 -9.1875 L 9.625 -9.1875 L 9.625 -6.125 L 4.59375 -6.125 L 4.59375 -3.0625 L 9.84375 -3.0625 L 9.84375 0 L 1.109375 0 L 1.109375 -15.28125 Z M 9.84375 -15.28125 "/></g></g></g><g fill="#000000" fill-opacity="0.4"><g transform="translate(166.357128, 273.551612)"><g><path d="M 15.40625 0 L 10.90625 0 L 7.296875 -5.203125 L 3.6875 0 L -0.625 0 L 5.140625 -8.21875 L 0.328125 -15.28125 L 4.484375 -15.28125 L 7.296875 -11.109375 L 10.109375 -15.28125 L 14.4375 -15.28125 L 9.4375 -8.21875 Z M 15.40625 0 "/></g></g></g><g fill="#000000" fill-opacity="0.4"><g transform="translate(181.132617, 273.551612)"><g><path d="M 1.109375 -15.28125 L 6.6875 -15.28125 C 8.238281 -15.28125 9.492188 -14.878906 10.453125 -14.078125 C 11.421875 -13.273438 11.90625 -12.109375 11.90625 -10.578125 C 11.90625 -9.046875 11.414062 -7.84375 10.4375 -6.96875 C 9.46875 -6.101562 8.21875 -5.671875 6.6875 -5.671875 L 4.59375 -5.671875 L 4.59375 0 L 1.109375 0 Z M 4.59375 -8.4375 L 5.578125 -8.4375 C 6.347656 -8.4375 6.984375 -8.59375 7.484375 -8.90625 C 7.984375 -9.226562 8.234375 -9.75 8.234375 -10.46875 C 8.234375 -11.1875 7.984375 -11.703125 7.484375 -12.015625 C 6.984375 -12.335938 6.347656 -12.5 5.578125 -12.5 L 4.59375 -12.5 Z M 4.59375 -8.4375 "/></g></g></g><g fill="#000000" fill-opacity="0.4"><g transform="translate(193.464037, 273.551612)"><g><path d="M 1.109375 -15.28125 L 6.578125 -15.28125 C 8.046875 -15.28125 9.238281 -14.882812 10.15625 -14.09375 C 11.082031 -13.3125 11.546875 -12.191406 11.546875 -10.734375 C 11.546875 -9.609375 11.265625 -8.664062 10.703125 -7.90625 C 10.148438 -7.15625 9.390625 -6.625 8.421875 -6.3125 L 13.6875 0 L 9.25 0 L 4.59375 -6.03125 L 4.59375 0 L 1.109375 0 Z M 4.59375 -8.5 L 5 -8.5 C 5.320312 -8.5 5.59375 -8.503906 5.8125 -8.515625 C 6.03125 -8.523438 6.28125 -8.566406 6.5625 -8.640625 C 6.851562 -8.722656 7.082031 -8.832031 7.25 -8.96875 C 7.425781 -9.101562 7.578125 -9.296875 7.703125 -9.546875 C 7.828125 -9.804688 7.890625 -10.117188 7.890625 -10.484375 C 7.890625 -10.859375 7.828125 -11.175781 7.703125 -11.4375 C 7.578125 -11.695312 7.425781 -11.894531 7.25 -12.03125 C 7.082031 -12.164062 6.851562 -12.269531 6.5625 -12.34375 C 6.28125 -12.425781 6.03125 -12.472656 5.8125 -12.484375 C 5.59375 -12.492188 5.320312 -12.5 5 -12.5 L 4.59375 -12.5 Z M 4.59375 -8.5 "/></g></g></g><g fill="#000000" fill-opacity="0.4"><g transform="translate(206.721239, 273.551612)"><g><path d="M 9.84375 -15.28125 L 9.84375 -12.21875 L 4.59375 -12.21875 L 4.59375 -9.1875 L 9.625 -9.1875 L 9.625 -6.125 L 4.59375 -6.125 L 4.59375 -3.0625 L 9.84375 -3.0625 L 9.84375 0 L 1.109375 0 L 1.109375 -15.28125 Z M 9.84375 -15.28125 "/></g></g></g><g fill="#000000" fill-opacity="0.4"><g transform="translate(217.460316, 273.551612)"><g><path d="M 6.734375 -15.546875 C 7.566406 -15.546875 8.375 -15.425781 9.15625 -15.1875 C 9.945312 -14.945312 10.535156 -14.710938 10.921875 -14.484375 L 11.484375 -14.109375 L 10.078125 -11.328125 C 9.960938 -11.398438 9.804688 -11.492188 9.609375 -11.609375 C 9.410156 -11.734375 9.039062 -11.894531 8.5 -12.09375 C 7.957031 -12.289062 7.453125 -12.390625 6.984375 -12.390625 C 6.398438 -12.390625 5.953125 -12.265625 5.640625 -12.015625 C 5.328125 -11.765625 5.171875 -11.429688 5.171875 -11.015625 C 5.171875 -10.804688 5.242188 -10.613281 5.390625 -10.4375 C 5.535156 -10.257812 5.785156 -10.066406 6.140625 -9.859375 C 6.503906 -9.648438 6.820312 -9.484375 7.09375 -9.359375 C 7.363281 -9.242188 7.78125 -9.0625 8.34375 -8.8125 C 9.332031 -8.394531 10.175781 -7.820312 10.875 -7.09375 C 11.570312 -6.375 11.921875 -5.554688 11.921875 -4.640625 C 11.921875 -3.765625 11.765625 -3 11.453125 -2.34375 C 11.140625 -1.695312 10.707031 -1.1875 10.15625 -0.8125 C 9.601562 -0.445312 8.992188 -0.175781 8.328125 0 C 7.660156 0.1875 6.941406 0.28125 6.171875 0.28125 C 5.503906 0.28125 4.847656 0.210938 4.203125 0.078125 C 3.554688 -0.0546875 3.015625 -0.222656 2.578125 -0.421875 C 2.148438 -0.628906 1.765625 -0.832031 1.421875 -1.03125 C 1.078125 -1.226562 0.828125 -1.394531 0.671875 -1.53125 L 0.421875 -1.734375 L 2.171875 -4.671875 C 2.316406 -4.546875 2.519531 -4.382812 2.78125 -4.1875 C 3.039062 -4 3.5 -3.742188 4.15625 -3.421875 C 4.8125 -3.097656 5.394531 -2.9375 5.90625 -2.9375 C 7.375 -2.9375 8.109375 -3.4375 8.109375 -4.4375 C 8.109375 -4.65625 8.054688 -4.851562 7.953125 -5.03125 C 7.847656 -5.207031 7.660156 -5.382812 7.390625 -5.5625 C 7.128906 -5.738281 6.894531 -5.878906 6.6875 -5.984375 C 6.488281 -6.085938 6.15625 -6.25 5.6875 -6.46875 C 5.226562 -6.6875 4.890625 -6.851562 4.671875 -6.96875 C 3.742188 -7.414062 3.023438 -7.984375 2.515625 -8.671875 C 2.015625 -9.359375 1.765625 -10.097656 1.765625 -10.890625 C 1.765625 -12.253906 2.269531 -13.367188 3.28125 -14.234375 C 4.289062 -15.109375 5.441406 -15.546875 6.734375 -15.546875 Z M 6.734375 -15.546875 "/></g></g></g><g fill="#000000" fill-opacity="0.4"><g transform="translate(229.532482, 273.551612)"><g><path d="M 6.734375 -15.546875 C 7.566406 -15.546875 8.375 -15.425781 9.15625 -15.1875 C 9.945312 -14.945312 10.535156 -14.710938 10.921875 -14.484375 L 11.484375 -14.109375 L 10.078125 -11.328125 C 9.960938 -11.398438 9.804688 -11.492188 9.609375 -11.609375 C 9.410156 -11.734375 9.039062 -11.894531 8.5 -12.09375 C 7.957031 -12.289062 7.453125 -12.390625 6.984375 -12.390625 C 6.398438 -12.390625 5.953125 -12.265625 5.640625 -12.015625 C 5.328125 -11.765625 5.171875 -11.429688 5.171875 -11.015625 C 5.171875 -10.804688 5.242188 -10.613281 5.390625 -10.4375 C 5.535156 -10.257812 5.785156 -10.066406 6.140625 -9.859375 C 6.503906 -9.648438 6.820312 -9.484375 7.09375 -9.359375 C 7.363281 -9.242188 7.78125 -9.0625 8.34375 -8.8125 C 9.332031 -8.394531 10.175781 -7.820312 10.875 -7.09375 C 11.570312 -6.375 11.921875 -5.554688 11.921875 -4.640625 C 11.921875 -3.765625 11.765625 -3 11.453125 -2.34375 C 11.140625 -1.695312 10.707031 -1.1875 10.15625 -0.8125 C 9.601562 -0.445312 8.992188 -0.175781 8.328125 0 C 7.660156 0.1875 6.941406 0.28125 6.171875 0.28125 C 5.503906 0.28125 4.847656 0.210938 4.203125 0.078125 C 3.554688 -0.0546875 3.015625 -0.222656 2.578125 -0.421875 C 2.148438 -0.628906 1.765625 -0.832031 1.421875 -1.03125 C 1.078125 -1.226562 0.828125 -1.394531 0.671875 -1.53125 L 0.421875 -1.734375 L 2.171875 -4.671875 C 2.316406 -4.546875 2.519531 -4.382812 2.78125 -4.1875 C 3.039062 -4 3.5 -3.742188 4.15625 -3.421875 C 4.8125 -3.097656 5.394531 -2.9375 5.90625 -2.9375 C 7.375 -2.9375 8.109375 -3.4375 8.109375 -4.4375 C 8.109375 -4.65625 8.054688 -4.851562 7.953125 -5.03125 C 7.847656 -5.207031 7.660156 -5.382812 7.390625 -5.5625 C 7.128906 -5.738281 6.894531 -5.878906 6.6875 -5.984375 C 6.488281 -6.085938 6.15625 -6.25 5.6875 -6.46875 C 5.226562 -6.6875 4.890625 -6.851562 4.671875 -6.96875 C 3.742188 -7.414062 3.023438 -7.984375 2.515625 -8.671875 C 2.015625 -9.359375 1.765625 -10.097656 1.765625 -10.890625 C 1.765625 -12.253906 2.269531 -13.367188 3.28125 -14.234375 C 4.289062 -15.109375 5.441406 -15.546875 6.734375 -15.546875 Z M 6.734375 -15.546875 "/></g></g></g><g fill="#000000" fill-opacity="1"><g transform="translate(133.839843, 272.733116)"><g><path d="M 9.9375 -15.28125 L 9.9375 -12.21875 L 4.59375 -12.21875 L 4.59375 -9.1875 L 9.53125 -9.1875 L 9.53125 -6.125 L 4.59375 -6.125 L 4.59375 0 L 1.109375 0 L 1.109375 -15.28125 Z M 9.9375 -15.28125 "/></g></g></g><g fill="#000000" fill-opacity="1"><g transform="translate(144.338217, 272.733116)"><g><path d="M 4.59375 -15.28125 L 4.59375 -3.0625 L 9.84375 -3.0625 L 9.84375 0 L 1.109375 0 L 1.109375 -15.28125 Z M 4.59375 -15.28125 "/></g></g></g><g fill="#000000" fill-opacity="1"><g transform="translate(154.799559, 272.733116)"><g><path d="M 9.84375 -15.28125 L 9.84375 -12.21875 L 4.59375 -12.21875 L 4.59375 -9.1875 L 9.625 -9.1875 L 9.625 -6.125 L 4.59375 -6.125 L 4.59375 -3.0625 L 9.84375 -3.0625 L 9.84375 0 L 1.109375 0 L 1.109375 -15.28125 Z M 9.84375 -15.28125 "/></g></g></g><g fill="#000000" fill-opacity="1"><g transform="translate(165.538637, 272.733116)"><g><path d="M 15.40625 0 L 10.90625 0 L 7.296875 -5.203125 L 3.6875 0 L -0.625 0 L 5.140625 -8.21875 L 0.328125 -15.28125 L 4.484375 -15.28125 L 7.296875 -11.109375 L 10.109375 -15.28125 L 14.4375 -15.28125 L 9.4375 -8.21875 Z M 15.40625 0 "/></g></g></g><g fill="#000000" fill-opacity="1"><g transform="translate(180.314125, 272.733116)"><g><path d="M 1.109375 -15.28125 L 6.6875 -15.28125 C 8.238281 -15.28125 9.492188 -14.878906 10.453125 -14.078125 C 11.421875 -13.273438 11.90625 -12.109375 11.90625 -10.578125 C 11.90625 -9.046875 11.414062 -7.84375 10.4375 -6.96875 C 9.46875 -6.101562 8.21875 -5.671875 6.6875 -5.671875 L 4.59375 -5.671875 L 4.59375 0 L 1.109375 0 Z M 4.59375 -8.4375 L 5.578125 -8.4375 C 6.347656 -8.4375 6.984375 -8.59375 7.484375 -8.90625 C 7.984375 -9.226562 8.234375 -9.75 8.234375 -10.46875 C 8.234375 -11.1875 7.984375 -11.703125 7.484375 -12.015625 C 6.984375 -12.335938 6.347656 -12.5 5.578125 -12.5 L 4.59375 -12.5 Z M 4.59375 -8.4375 "/></g></g></g><g fill="#000000" fill-opacity="1"><g transform="translate(192.645545, 272.733116)"><g><path d="M 1.109375 -15.28125 L 6.578125 -15.28125 C 8.046875 -15.28125 9.238281 -14.882812 10.15625 -14.09375 C 11.082031 -13.3125 11.546875 -12.191406 11.546875 -10.734375 C 11.546875 -9.609375 11.265625 -8.664062 10.703125 -7.90625 C 10.148438 -7.15625 9.390625 -6.625 8.421875 -6.3125 L 13.6875 0 L 9.25 0 L 4.59375 -6.03125 L 4.59375 0 L 1.109375 0 Z M 4.59375 -8.5 L 5 -8.5 C 5.320312 -8.5 5.59375 -8.503906 5.8125 -8.515625 C 6.03125 -8.523438 6.28125 -8.566406 6.5625 -8.640625 C 6.851562 -8.722656 7.082031 -8.832031 7.25 -8.96875 C 7.425781 -9.101562 7.578125 -9.296875 7.703125 -9.546875 C 7.828125 -9.804688 7.890625 -10.117188 7.890625 -10.484375 C 7.890625 -10.859375 7.828125 -11.175781 7.703125 -11.4375 C 7.578125 -11.695312 7.425781 -11.894531 7.25 -12.03125 C 7.082031 -12.164062 6.851562 -12.269531 6.5625 -12.34375 C 6.28125 -12.425781 6.03125 -12.472656 5.8125 -12.484375 C 5.59375 -12.492188 5.320312 -12.5 5 -12.5 L 4.59375 -12.5 Z M 4.59375 -8.5 "/></g></g></g><g fill="#000000" fill-opacity="1"><g transform="translate(205.902747, 272.733116)"><g><path d="M 9.84375 -15.28125 L 9.84375 -12.21875 L 4.59375 -12.21875 L 4.59375 -9.1875 L 9.625 -9.1875 L 9.625 -6.125 L 4.59375 -6.125 L 4.59375 -3.0625 L 9.84375 -3.0625 L 9.84375 0 L 1.109375 0 L 1.109375 -15.28125 Z M 9.84375 -15.28125 "/></g></g></g><g fill="#000000" fill-opacity="1"><g transform="translate(216.641825, 272.733116)"><g><path d="M 6.734375 -15.546875 C 7.566406 -15.546875 8.375 -15.425781 9.15625 -15.1875 C 9.945312 -14.945312 10.535156 -14.710938 10.921875 -14.484375 L 11.484375 -14.109375 L 10.078125 -11.328125 C 9.960938 -11.398438 9.804688 -11.492188 9.609375 -11.609375 C 9.410156 -11.734375 9.039062 -11.894531 8.5 -12.09375 C 7.957031 -12.289062 7.453125 -12.390625 6.984375 -12.390625 C 6.398438 -12.390625 5.953125 -12.265625 5.640625 -12.015625 C 5.328125 -11.765625 5.171875 -11.429688 5.171875 -11.015625 C 5.171875 -10.804688 5.242188 -10.613281 5.390625 -10.4375 C 5.535156 -10.257812 5.785156 -10.066406 6.140625 -9.859375 C 6.503906 -9.648438 6.820312 -9.484375 7.09375 -9.359375 C 7.363281 -9.242188 7.78125 -9.0625 8.34375 -8.8125 C 9.332031 -8.394531 10.175781 -7.820312 10.875 -7.09375 C 11.570312 -6.375 11.921875 -5.554688 11.921875 -4.640625 C 11.921875 -3.765625 11.765625 -3 11.453125 -2.34375 C 11.140625 -1.695312 10.707031 -1.1875 10.15625 -0.8125 C 9.601562 -0.445312 8.992188 -0.175781 8.328125 0 C 7.660156 0.1875 6.941406 0.28125 6.171875 0.28125 C 5.503906 0.28125 4.847656 0.210938 4.203125 0.078125 C 3.554688 -0.0546875 3.015625 -0.222656 2.578125 -0.421875 C 2.148438 -0.628906 1.765625 -0.832031 1.421875 -1.03125 C 1.078125 -1.226562 0.828125 -1.394531 0.671875 -1.53125 L 0.421875 -1.734375 L 2.171875 -4.671875 C 2.316406 -4.546875 2.519531 -4.382812 2.78125 -4.1875 C 3.039062 -4 3.5 -3.742188 4.15625 -3.421875 C 4.8125 -3.097656 5.394531 -2.9375 5.90625 -2.9375 C 7.375 -2.9375 8.109375 -3.4375 8.109375 -4.4375 C 8.109375 -4.65625 8.054688 -4.851562 7.953125 -5.03125 C 7.847656 -5.207031 7.660156 -5.382812 7.390625 -5.5625 C 7.128906 -5.738281 6.894531 -5.878906 6.6875 -5.984375 C 6.488281 -6.085938 6.15625 -6.25 5.6875 -6.46875 C 5.226562 -6.6875 4.890625 -6.851562 4.671875 -6.96875 C 3.742188 -7.414062 3.023438 -7.984375 2.515625 -8.671875 C 2.015625 -9.359375 1.765625 -10.097656 1.765625 -10.890625 C 1.765625 -12.253906 2.269531 -13.367188 3.28125 -14.234375 C 4.289062 -15.109375 5.441406 -15.546875 6.734375 -15.546875 Z M 6.734375 -15.546875 "/></g></g></g><g fill="#000000" fill-opacity="1"><g transform="translate(228.71399, 272.733116)"><g><path d="M 6.734375 -15.546875 C 7.566406 -15.546875 8.375 -15.425781 9.15625 -15.1875 C 9.945312 -14.945312 10.535156 -14.710938 10.921875 -14.484375 L 11.484375 -14.109375 L 10.078125 -11.328125 C 9.960938 -11.398438 9.804688 -11.492188 9.609375 -11.609375 C 9.410156 -11.734375 9.039062 -11.894531 8.5 -12.09375 C 7.957031 -12.289062 7.453125 -12.390625 6.984375 -12.390625 C 6.398438 -12.390625 5.953125 -12.265625 5.640625 -12.015625 C 5.328125 -11.765625 5.171875 -11.429688 5.171875 -11.015625 C 5.171875 -10.804688 5.242188 -10.613281 5.390625 -10.4375 C 5.535156 -10.257812 5.785156 -10.066406 6.140625 -9.859375 C 6.503906 -9.648438 6.820312 -9.484375 7.09375 -9.359375 C 7.363281 -9.242188 7.78125 -9.0625 8.34375 -8.8125 C 9.332031 -8.394531 10.175781 -7.820312 10.875 -7.09375 C 11.570312 -6.375 11.921875 -5.554688 11.921875 -4.640625 C 11.921875 -3.765625 11.765625 -3 11.453125 -2.34375 C 11.140625 -1.695312 10.707031 -1.1875 10.15625 -0.8125 C 9.601562 -0.445312 8.992188 -0.175781 8.328125 0 C 7.660156 0.1875 6.941406 0.28125 6.171875 0.28125 C 5.503906 0.28125 4.847656 0.210938 4.203125 0.078125 C 3.554688 -0.0546875 3.015625 -0.222656 2.578125 -0.421875 C 2.148438 -0.628906 1.765625 -0.832031 1.421875 -1.03125 C 1.078125 -1.226562 0.828125 -1.394531 0.671875 -1.53125 L 0.421875 -1.734375 L 2.171875 -4.671875 C 2.316406 -4.546875 2.519531 -4.382812 2.78125 -4.1875 C 3.039062 -4 3.5 -3.742188 4.15625 -3.421875 C 4.8125 -3.097656 5.394531 -2.9375 5.90625 -2.9375 C 7.375 -2.9375 8.109375 -3.4375 8.109375 -4.4375 C 8.109375 -4.65625 8.054688 -4.851562 7.953125 -5.03125 C 7.847656 -5.207031 7.660156 -5.382812 7.390625 -5.5625 C 7.128906 -5.738281 6.894531 -5.878906 6.6875 -5.984375 C 6.488281 -6.085938 6.15625 -6.25 5.6875 -6.46875 C 5.226562 -6.6875 4.890625 -6.851562 4.671875 -6.96875 C 3.742188 -7.414062 3.023438 -7.984375 2.515625 -8.671875 C 2.015625 -9.359375 1.765625 -10.097656 1.765625 -10.890625 C 1.765625 -12.253906 2.269531 -13.367188 3.28125 -14.234375 C 4.289062 -15.109375 5.441406 -15.546875 6.734375 -15.546875 Z M 6.734375 -15.546875 "/></g></g></g></svg>